<?xml version="1.0" encoding="UTF-8"?>
<svg id="_레이어_1" data-name="레이어 1" xmlns="http://www.w3.org/2000/svg" xmlns:xlink="http://www.w3.org/1999/xlink" viewBox="0 0 1080 1080">
  <defs>
    <style>
      .cls-1 {
        fill: url(#_무제_그라디언트_505);
      }

      .cls-2 {
        fill: url(#_무제_그라디언트_285-2);
      }

      .cls-3 {
        fill: url(#_무제_그라디언트_285);
      }
    </style>
    <linearGradient id="_무제_그라디언트_505" data-name="무제 그라디언트 505" x1="837.32" y1="843.24" x2="445.89" y2="17.46" gradientUnits="userSpaceOnUse">
      <stop offset="0" stop-color="#950000"/>
      <stop offset=".21" stop-color="#700"/>
      <stop offset=".4" stop-color="red"/>
      <stop offset=".63" stop-color="#3d0000"/>
      <stop offset="1" stop-color="#090000"/>
    </linearGradient>
    <linearGradient id="_무제_그라디언트_285" data-name="무제 그라디언트 285" x1="582.14" y1="964.2" x2="190.7" y2="138.42" gradientUnits="userSpaceOnUse">
      <stop offset="0" stop-color="red"/>
      <stop offset="1" stop-color="#000"/>
    </linearGradient>
    <linearGradient id="_무제_그라디언트_285-2" data-name="무제 그라디언트 285" x1="462.9" y1="1020.73" x2="71.46" y2="194.94" xlink:href="#_무제_그라디언트_285"/>
  </defs>
  <path class="cls-1" d="M952.36,274.18c-3.82,35.26-17.79,68.85-40.26,99.22-.02.04-.06.1-.08.14-.76,1-1.51,2.01-2.27,3.01-2.39,2.83-5.22,5.02-8.53,6.45-33.17,14.34-298.61-8.88-339.96-32.53,22.57-5.24,42.69-13.59,60.5-23.86,37.95-21.87,65.42-52.49,83.67-80.3,50.4-76.79-62.67-119.58-198.21-108.55-101.22,8.25-183.87,48.96-183.87,109.38,0,30.68,21.24,58.41,55.46,78.25,3.98,2.33,8.15,4.54,12.47,6.63.04.02.08.04.12.06,166.5,84.76,425.12,77.61,468.71,94.38,4.1,1.59,6.29,3.39,6.33,5.48.38,25-62.61,108.15-103.93,118.55-190.8,11.87-384.17-62.51-384.17-62.51v-.32c-125.5-45.1-210.98-134.09-210.98-228.31,0-134.88,175.28-222.51,392.14-229.4,228.59-7.27,408.57,99.52,392.85,244.23Z"/>
  <path class="cls-3" d="M562.58,1004.82l-1.66,45.58-276.59-78.94c-1.27-161.63,85.82-312.83,210.66-410.5,69.61,12.97,138.66,22.26,211.2,29.39-27.14,30.56-48.02,60.75-64.93,95.65-17.65,35-30.74,69.97-42.17,107.76-20.18,69.2-30.98,138.56-36.51,211.06Z"/>
  <path class="cls-2" d="M245.77,813.08l-119.08-48.23c13.29-61.77,60.53-128.16,103.16-170.7l8.27-8.25c29.05-28.99,61.93-53.66,99.9-70.23l117.21,35.46c-28.01,20.04-52.17,39.99-74.4,63.82l-24.32,26.06c-40.53,48.92-74.98,101.77-103.31,158.88-2.31,4.65-3.33,7.91-7.42,13.19Z"/>
</svg>